grf_walk
version=1
nRows=56
nColumns=19
inDegrees=no
endheader
time	ground_force_r_vx	ground_force_r_vy	ground_force_r_vz	ground_force_r_px	ground_force_r_py	ground_force_r_pz	ground_torque_r_x	ground_torque_r_y	ground_torque_r_z	ground_force_l_vx	ground_force_l_vy	ground_force_l_vz	ground_force_l_px	ground_force_l_py	ground_force_l_pz	ground_torque_l_x	ground_torque_l_y	ground_torque_l_z
1.7915	-7.925308259164631	616.7999806262693	-25.73662331414566	1.605656674377375	0	-0.1779984300142884	0	-1.561894157489566	0	0	0	0	2.225379133285569	0	-3.651394123162908	0	0	0
1.792	-7.733176821620047	616.9675995129923	-25.77997903422624	1.60583499148174	0	-0.1779819912982907	0	-1.549040266929428	0	0	0	0	2.237079403416274	0	-3.679947241039817	0	0	0
1.7925	-7.540687649529067	617.1425406018398	-25.82405061818003	1.60601287836856	0	-0.1779655694650503	0	-1.536067854220305	0	0	0	0	2.248854224715519	0	-3.708662451886803	0	0	0
1.793	-7.347814259082848	617.3247967618544	-25.86882089159867	1.606190337987524	0	-0.1779491664946861	0	-1.522975984659799	0	0	0	0	2.260703829673397	0	-3.737540213317715	0	0	0
1.7935	-7.154530165021958	617.5143612722454	-25.91427281024515	1.606367373501334	0	-0.1779327844364026	0	-1.509763632568385	0	0	0	0	2.272628450787187	0	-3.766580982941104	0	0	0
1.794	-6.96080888985726	617.7112278210069	-25.96038947276753	1.606543988263578	0	-0.1779164254413384	0	-1.496429680297121	0	0	0	0	2.284628320535714	0	-3.795785218362534	0	0	0
1.7945	-6.766623974070243	617.9153905153358	-26.00715413636111	1.60672018577873	0	-0.1779000917082277	0	-1.482972918670758	0	0	0	0	2.296703671430569	0	-3.825153377225606	0	0	0
1.795	-6.571948987334153	618.126843904305	-26.05455023505897	1.606895969678141	0	-0.1778837855137976	0	-1.469392048790655	0	0	0	0	2.308854735983038	0	-3.854685917141582	0	0	0
1.7955	-6.376757540709697	618.3455830140992	-26.10256140020324	1.607071343670021	0	-0.1778675091563097	0	-1.455685684863105	0	0	0	0	2.321081746671067	0	-3.884383295763858	0	0	0
1.796	-6.181023299842891	618.5716033953711	-26.15117148280373	1.607246311450213	0	-0.1778512649976084	0	-1.441852357969633	0	0	0	0	2.333384935990626	0	-3.914245970746426	0	0	0
1.7965	-5.984719999025253	618.8049011819026	-26.20036457710488	1.607420876667786	0	-0.1778350553716995	0	-1.42789052042163	0	0	0	0	2.345764536439176	0	-3.944274399758015	0	0	0
1.797	-5.787821455999449	619.0454731594764	-26.25012504476762	1.607595042835619	0	-0.1778188826560108	0	-1.41379855084974	0	0	0	0	2.358220780486993	0	-3.974469040491427	0	0	0
1.7975	-5.590301587445214	619.2933168429657	-26.30043753916009	1.607768813234328	0	-0.1778027491799347	0	-1.399574759647747	0	0	0	0	2.370753900607896	0	-4.004830350629259	0	0	0
1.798	-5.392134425031923	619.5484305600243	-26.35128702898731	1.607942190849315	0	-0.177786657257899	0	-1.385217394895476	0	0	0	0	2.383364129267338	0	-4.035358787876795	0	0	0
1.7985	-5.193294131952642	619.8108135388139	-26.40265882075217	1.608115178279851	0	-0.1777706091760739	0	-1.370724648703707	0	0	0	0	2.396051698910863	0	-4.066054809951329	0	0	0
1.799	-4.993755019816624	620.0804659975163	-26.45453857962725	1.608287777622494	0	-0.1777546071329897	0	-1.356094664091297	0	0	0	0	2.408816841991515	0	-4.096918874584606	0	0	0
1.7995	-4.793491566051945	620.3573892329438	-26.5069123481836	1.60845999039442	0	-0.1777386533054981	0	-1.34132554242816	0	0	0	0	2.421659790929177	0	-4.127951439490272	0	0	0
1.8	-4.592478431649849	620.6415857057859	-26.5597665627842	1.608631817438975	0	-0.177722749766711	0	-1.326415351626649	0	0	0	0	2.434580778147292	0	-4.159152962416734	0	0	0
1.8005	-4.390690479476488	620.9330591199781	-26.61308806736133	1.608803258877233	0	-0.1777068985302387	0	-1.311362135220971	0	0	0	0	2.44758003605883	0	-4.190523901066845	0	0	0
1.801	-4.188102793110683	621.2318144938067	-26.6668641245408	1.608974314005994	0	-0.1776911015013877	0	-1.296163922481889	0	0	0	0	2.460657797066248	0	-4.222064713167145	0	0	0
1.8015	-3.984690696431994	621.5378582207792	-26.72108242411715	1.609144981255616	0	-0.1776753605160359	0	-1.280818739802662	0	0	0	0	2.473814293566342	0	-4.253775856421714	0	0	0
1.802	-3.780429773927966	621.8511981182954	-26.77573108888732	1.609315258154143	0	-0.1776596773087345	0	-1.265324623308246	0	0	0	0	2.487049757942489	0	-4.285657788522682	0	0	0
1.8025	-3.575295892060445	622.1718434628007	-26.83079867821945	1.609485141300476	0	-0.1776440535212253	0	-1.249679633085699	0	0	0	0	2.500364422578238	0	-4.317710967134921	0	0	0
1.803	-3.36926522157251	622.4998050101501	-26.88627418937872	1.609654626347707	0	-0.1776284906901254	0	-1.233881868789532	0	0	0	0	2.513758519893711	0	-4.349935849937895	0	0	0
1.8035	-3.162314261032387	622.8350950006135	-26.94214705714104	1.609823708067231	0	-0.1776129902962655	0	-1.217929486821766	0	0	0	0	2.527232282284722	0	-4.382332894562033	0	0	0
1.804	-2.954419861498391	623.1777271482167	-26.99840715175264	1.609992380323105	0	-0.1775975536907974	0	-1.201820718980468	0	0	0	0	2.540785942172768	0	-4.414902558619499	0	0	0
1.8045	-2.745559252361809	623.5277166144047	-27.05504477572198	1.610160636174277	0	-0.1775821821846733	0	-1.185553892350098	0	0	0	0	2.5544197319897	0	-4.447645299740389	0	0	0
1.805	-2.535710068204267	623.8850799667865	-27.11205065963223	1.610328467950155	0	-0.1775668769799054	0	-1.169127450445044	0	0	0	0	2.568133884209671	0	-4.48056157552147	0	0	0
1.8055	-2.324850376617586	624.249835123808	-27.16941595729006	1.610495867319998	0	-0.1775516392253674	0	-1.152539975153565	0	0	0	0	2.581928631307535	0	-4.513651843539437	0	0	0
1.806	-2.112958706632674	624.6220012865765	-27.2271322404053	1.610662825456654	0	-0.177536469972962	0	-1.135790209329093	0	0	0	0	2.595804205797106	0	-4.546916561380847	0	0	0
1.8065	-1.900014077528103	625.0015988595504	-27.28519149291916	1.610829333121033	0	-0.1775213702184776	0	-1.118877079565257	0	0	0	0	2.609760840220794	0	-4.580356186647736	0	0	0
1.807	-1.685996027716387	625.3886493618647	-27.34358610517604	1.610995380862332	0	-0.1775063409168265	0	-1.10179971884174	0	0	0	0	2.623798767146778	0	-4.613971176938646	0	0	0
1.8075	-1.470884643182879	625.7831753314387	-27.40230886791776	1.611160959102968	0	-0.177491382915599	0	-1.084557488559633	0	0	0	0	2.63791821915558	0	-4.64776198985448	0	0	0
1.808	-1.254660585174008	626.185200224082	-27.46135296610968	1.611326058330534	0	-0.1774764970284317	0	-1.067149999573931	0	0	0	0	2.652119428867977	0	-4.681729083037823	0	0	0
1.8085	-1.037305116638946	626.5947483099128	-27.52071197258797	1.611490669282255	0	-0.1774616839830751	0	-1.049577131733841	0	0	0	0	2.666402628885602	0	-4.715872914130322	0	0	0
1.809	-0.8188001269960374	627.0118445694832	-27.58037984145837	1.611654783077368	0	-0.1774469444771704	0	-1.031839051572397	0	0	0	0	2.680768051859222	0	-4.750193940832422	0	0	0
1.8095	-0.5991281547313352	627.4365145918686	-27.64035090108751	1.611818391347814	0	-0.1774322791008384	0	-1.013936227646282	0	0	0	0	2.695215930406835	0	-4.78469262083309	0	0	0
1.81	-0.3782724075337975	627.8687844768268	-27.70061984664311	1.611981486422896	0	-0.177417688422253	0	-0.9958694433107009	0	0	0	0	2.709746497138038	0	-4.819369411892525	0	0	0
1.8105	-0.1562167794756986	628.308680742997	-27.76118173203851	1.612144061428578	0	-0.1774031729152617	0	-0.9776398064343755	0	0	0	0	2.724359984656385	0	-4.854224771755947	0	0	0
1.811	0.06705413492362615	628.7562302437781	-27.82203196109265	1.61230611040096	0	-0.177388732999051	0	-0.9592487559312646	0	0	0	0	2.739056625550713	0	-4.889259158237635	0	0	0
1.8115	0.2915550300450112	629.211460092421	-27.88316627792718	1.612467628411536	0	-0.1773743690400267	0	-0.9406980647847569	0	0	0	0	2.753836652357788	0	-4.92447302914511	0	0	0
1.812	0.5172998821194225	629.6743975973822	-27.94458075640435	1.612628611600013	0	-0.1773600813294437	0	-0.9219898394416109	0	0	0	0	2.768700297594341	0	-4.959866842326739	0	0	0
1.8125	0.7443019457273479	630.1450702087761	-28.00627178864593	1.612789057285193	0	-0.1773458701398339	0	-0.9031265155721311	0	0	0	0	2.783647793739442	0	-4.995441055610124	0	0	0
1.813	0.9725737539147169	630.6235054763431	-28.068236072491	1.61294896393438	0	-0.1773317356541619	0	-0.8841108500532436	0	0	0	0	2.798679373232036	0	-5.03119612687273	0	0	0
1.8135	1.202127121931736	631.1097310190639	-28.1304705980899	1.613108331226697	0	-0.1773176780456535	0	-0.8649459093874357	0	0	0	0	2.81379526847895	0	-5.067132513971445	0	0	0
1.814	1.432973154385451	631.603774506206	-28.1929726334604	1.613267160000274	0	-0.1773036974473167	0	-0.8456350545953099	0	0	0	0	2.828995711842968	0	-5.10325067474455	0	0	0
1.8145	1.665122255520594	632.1056636492749	-28.2557397092867	1.613425452278411	0	-0.1772897939698671	0	-0.8261819228370455	0	0	0	0	2.844280935657557	0	-5.139551067034319	0	0	0
1.815	1.898584142662647	632.6154262042829	-28.31876960286579	1.613583211157389	0	-0.1772759677111413	0	-0.8065904059504353	0	0	0	0	2.859651172265059	0	-5.176034148641615	0	0	0
1.8155	2.133367862348158	633.133089983229	-28.38206032150878	1.613740440784331	0	-0.1772622187789511	0	-0.7868646262991714	0	0	0	0	2.875106653949132	0	-5.212700377371798	0	0	0
1.816	2.369481808937076	633.6586828738034	-28.44561008534779	1.613897146264534	0	-0.1772485472665724	0	-0.7670089102293225	0	0	0	0	2.890647613017072	0	-5.249550210952855	0	0	0
1.8165	2.606933745456887	634.1922328659889	-28.50941730985378	1.614053333592473	0	-0.1772349532957246	0	-0.747027759573344	0	0	0	0	2.906274281766649	0	-5.286584107108564	0	0	0
1.817	2.845730826302934	634.7337680841442	-28.57348058819158	1.614209009505485	0	-0.1772214370205009	0	-0.726925821739676	0	0	0	0	2.921986892491339	0	-5.323802523522289	0	0	0
1.8175	3.08587962151899	635.2833168231862	-28.6377986735568	1.614364181416172	0	-0.1772079986048218	0	-0.7067078586963293	0	0	0	0	2.937785677514396	0	-5.36120591780236	0	0	0
1.818	3.327386142323733	635.8409075873196	-28.70237046182818	1.614518857298559	0	-0.1771946382756522	0	-0.6863787155039388	0	0	0	0	2.953670869144408	0	-5.39879474755984	0	0	0
1.8185	3.570255867646946	636.4065691298789	-28.76719497454778	1.614673045561331	0	-0.1771813562896637	0	-0.6659432887831076	0	0	0	0	2.969642699731751	0	-5.436569470338549	0	0	0
1.819	3.814493771301825	636.9803304926686	-28.83227134248719	1.614826754952688	0	-0.1771681529502444	0	-0.6454064957409635	0	0	0	0	2.985701401669047	0	-5.474530543658034	0	0	0
